# xmcd CD database file
#
# Track frame offsets:
#	150
#	15090
#	27412
#	39292
#	49895
#	63187
#	74377
#	86880
#	105235
#	115942
#
# Disc length: 1830 seconds
#
# Revision: 4
# Processed by: cddbd v1.5.2PL0 Copyright (c) Steve Scherf et al.
# Submitted via: CDex 1.51
#
DISCID=7507240a
DTITLE=Gary Allan - Used Heart For Sale
DYEAR=1996
DGENRE=Country
TTITLE0=Send Back My Heart
TTITLE1=Her Man
TTITLE2=Forever And A Day
TTITLE3=Living In A House Full Of Love
TTITLE4=All I Had Going Is Gone
TTITLE5=Used Heart For Sale
TTITLE6=Of All The Hearts
TTITLE7=From Where I'm Sitting
TTITLE8=Wine Me Up
TTITLE9=Wake Up Screaming
EXTD=YEAR: 1996
EXTT0=
EXTT1=
EXTT2=
EXTT3=
EXTT4=
EXTT5=
EXTT6=
EXTT7=
EXTT8=
EXTT9=
PLAYORDER=
